<svg xmlns="http://www.w3.org/2000/svg" width="73" height="60" viewBox="0 0 73 60">
  <g fill="none" fill-rule="evenodd" transform="translate(0 -3)">
    <rect width="46" height="46" x="20.414" y="10" fill="#0029C7" rx="8" transform="rotate(45 43.414 33)"/>
    <path fill="#FFAD00" d="M19.8425197,38 L0.708661417,38 C0.236220472,38 0,37.7606838 0,37.2820513 L0,37.2820513 L0,10.7179487 C0,10.2393162 0.236220472,10 0.708661417,10 L0.708661417,10 L19.8425197,10 C24.8503937,10 28.7952756,11.2683761 31.6771654,13.8051282 C34.5590551,16.3418803 36,19.8119658 36,24.2153846 C36,28.5230769 34.5590551,31.8974359 31.6771654,34.3384615 C28.7952756,36.7794872 24.8503937,38 19.8425197,38 L19.8425197,38 Z" style="mix-blend-mode:hard-light"/>
    <path fill="#FFAD00" d="M26.1149425,59 L4.74712644,59 C4.24904215,59 4,58.7516026 4,58.2548077 L4,58.2548077 L4,28.7451923 C4,28.2483974 4.24904215,28 4.74712644,28 L4.74712644,28 L25.816092,28 C31.0957854,28 35.2796935,29.3661859 38.3678161,32.0985577 C41.4559387,34.8309295 43,38.6314103 43,43.5 C43,48.2692308 41.4808429,52.0448718 38.4425287,54.8269231 C35.4042146,57.6089744 31.2950192,59 26.1149425,59 L26.1149425,59 Z" style="mix-blend-mode:hard-light"/>
  </g>
</svg>
